<svg xmlns="http://www.w3.org/2000/svg" width="89.047" height="89.047"><g fill="#fff"><path d="M44.525 35.67a8.854 8.854 0 108.853 8.855 8.863 8.863 0 00-8.853-8.855z"/><path d="M54.259 23.171H34.787a11.631 11.631 0 00-11.616 11.616v19.471a11.631 11.631 0 0011.616 11.616h19.471a11.629 11.629 0 0011.616-11.616V34.787a11.629 11.629 0 00-11.615-11.616zm-9.735 34.057a12.7 12.7 0 1112.7-12.7 12.72 12.72 0 01-12.7 12.7zm14.084-23.484a3.307 3.307 0 113.308-3.306 3.308 3.308 0 01-3.308 3.306z"/><path d="M44.527 0A44.525 44.525 0 00.002 44.525a44.524 44.524 0 0044.525 44.522 44.522 44.522 0 0044.52-44.522A44.523 44.523 0 0044.527 0zm25.112 54.259a15.4 15.4 0 01-15.38 15.376H34.788a15.394 15.394 0 01-15.375-15.378V34.788a15.392 15.392 0 0115.375-15.375h19.471a15.394 15.394 0 0115.378 15.375z"/></g></svg>